<?xml version="1.0" encoding="UTF-8"?>
<svg id="Layer_1" data-name="Layer 1" xmlns="http://www.w3.org/2000/svg" viewBox="0 0 100 100">
  <defs>
    <style>
      .cls-1 {
        fill: #fff;
      }
    </style>
  </defs>
  <path class="cls-1" d="M14.31,78.54s-20-20,1-41c3.55-3.55,7.15-6.24,10.75-8.35,17.71-10.38,35.28-6.69,45.25-21.65,8.97-13.46,13.12.14,16,21,.32,2.34.9,8.51,3,8,4.23-1.02,7-15,7-6,0,15.19-12.47,41.22-19,47-6.96,6.17-19.04,11.48-34,12-29,1,23-51,23-51,0,0-17.31,11.47-34,28-10.81,10.71-22.64,28.43-25,30-6,4-11-1,6-18Z"/>
</svg>