<?xml version="1.0" encoding="UTF-8"?>
<svg id="Layer_1" data-name="Layer 1" xmlns="http://www.w3.org/2000/svg" viewBox="0 0 176 140.44">
  <defs>
    <style>
      .cls-1 {
        fill: #a7403f;
      }

      .cls-2 {
        fill: #231f20;
        font-size: 10px;
      }

      .cls-2, .cls-3 {
        font-family: NotoSansKR-Regular-KSCpc-EUC-H, 'Noto Sans KR';
      }

      .cls-4 {
        letter-spacing: 0em;
      }

      .cls-5 {
        letter-spacing: 0em;
      }

      .cls-6 {
        fill: #8c7b74;
      }

      .cls-7 {
        letter-spacing: -.05em;
      }

      .cls-8 {
        fill: #56bf98;
      }

      .cls-9 {
        letter-spacing: -.04em;
      }

      .cls-10 {
        letter-spacing: -.03em;
      }

      .cls-11 {
        letter-spacing: -.01em;
      }

      .cls-12 {
        letter-spacing: -.02em;
      }

      .cls-3 {
        fill: #fff;
        font-size: 12px;
      }
    </style>
  </defs>
  <rect class="cls-8" x="52.89" y="47.38" width="56.89" height="41.78" rx="5.48" ry="5.48"/>
  <rect class="cls-6" x="113.04" y="46.96" width="56.89" height="41.78" rx="5.48" ry="5.48"/>
  <rect class="cls-8" x="113.04" y="91.48" width="56.89" height="41.78" rx="5.48" ry="5.48"/>
  <rect class="cls-6" x="52.89" y="91.48" width="56.89" height="41.78" rx="5.48" ry="5.48"/>
  <text class="cls-2" transform="translate(47.14 78.85) rotate(-90)"><tspan class="cls-7" x="0" y="0">T</tspan><tspan x="5.47" y="0">rue</tspan></text>
  <text class="cls-2" transform="translate(47.27 124.29) rotate(-90)"><tspan class="cls-9" x="0" y="0">F</tspan><tspan class="cls-4" x="5.14" y="0">alse</tspan></text>
  <text class="cls-2" transform="translate(62.95 42.83)"><tspan class="cls-10" x="0" y="0">P</tspan><tspan x="6.05" y="0">ositi</tspan><tspan class="cls-5" x="26.06" y="0">v</tspan><tspan x="31.23" y="0">e</tspan></text>
  <text class="cls-2" transform="translate(120.97 42.96)"><tspan x="0" y="0">Na</tspan><tspan class="cls-12" x="12.86" y="0">g</tspan><tspan class="cls-11" x="18.31" y="0">a</tspan><tspan x="23.8" y="0">ti</tspan><tspan class="cls-5" x="30.32" y="0">v</tspan><tspan class="cls-4" x="35.49" y="0">e</tspan></text>
  <path class="cls-1" d="M53.18,28.81c29.86-.2,59.72-.04,89.58.49,8.46.15,16.92.33,25.38.54.8.02.8-1.23,0-1.25-29.85-.74-59.71-1.12-89.57-1.12-8.46,0-16.92.03-25.38.09-.8,0-.81,1.26,0,1.25h0Z"/>
  <path class="cls-1" d="M93.96,9.83c-2.13,5.69-4.37,11.33-6.74,16.93-.31.73.77,1.37,1.08.63,2.41-5.69,4.7-11.43,6.86-17.22.28-.75-.93-1.08-1.21-.33h0Z"/>
  <path class="cls-1" d="M93.59,13.54c.92-.65,2.24-.64,3.05.18.75.76.89,1.98.33,2.89s-1.65,1.39-2.66,1.5c-1.53.17-3.05-.37-4.49-.84-.76-.26-1.09.95-.33,1.21,2.5.84,5.42,1.58,7.68-.24.89-.72,1.46-1.82,1.4-2.98s-.69-2.32-1.72-2.94c-1.18-.7-2.77-.64-3.89.15-.65.46-.03,1.54.63,1.08h0Z"/>
  <path class="cls-1" d="M100.57,12.59l.36,4.49c.06.8,1.2.81,1.25,0,.12-2.03,1.19-4,2.84-5.2.27-.2.41-.54.22-.86-.16-.27-.58-.42-.86-.22-2.03,1.47-3.3,3.77-3.46,6.28h1.25l-.36-4.49c-.03-.34-.27-.62-.62-.62-.32,0-.65.29-.62.62h0Z"/>
  <path class="cls-1" d="M106.81,14.89c.77.35,1.56.58,2.41.67.72.08,1.52.08,2.2-.19.63-.26,1.27-.71,1.47-1.39s-.21-1.47-.89-1.72c-.6-.22-1.3.01-1.82.34-.61.38-1.07.95-1.47,1.54-.81,1.22-1.09,2.87-.08,4.07.51.6,1.29.84,2.05.67.69-.15,1.34-.69,1.47-1.41.06-.33-.09-.67-.44-.77-.3-.08-.71.1-.77.44-.01.06-.02.12-.04.17,0-.03.06-.09,0,.01,0,0-.1.15-.05.08s-.07.07-.07.07c-.08.08-.03.04,0,.02-.05.04-.1.07-.15.1-.03.02-.07.04-.11.05.11-.04-.06.01-.08.02,0,0-.21.04-.07.02-.04,0-.08,0-.12,0-.05,0-.1,0-.15,0-.11,0,.13.04-.04,0-.04-.01-.08-.02-.12-.03-.18-.05.05.03-.05-.02-.11-.06-.18-.11-.23-.16-.26-.25-.41-.62-.43-.98-.03-.47.1-.9.35-1.35s.56-.88.93-1.22c.15-.14.25-.21.46-.32.05-.03.1-.05.15-.08-.07.03.03,0,.03-.01.06-.02.12-.04.18-.06.03,0,.2-.03.07-.02.04,0,.08,0,.12,0h.06c-.07,0-.08,0,0,0,0,0,.14.06,0,0,0,0,.15.08.07.04-.06-.03.05.09,0,0,.02.03.04.08.06.11-.06-.09,0,.11,0-.03,0,.04-.03.18,0,.06,0,.04-.02.07-.03.11.05-.12-.04.05-.05.06.05-.07-.1.11-.13.14-.09.09-.35.25-.47.29-.29.12-.46.13-.71.15-.33.02-.67.01-1-.02-.64-.06-1.28-.24-1.87-.51-.31-.14-.67-.09-.86.22-.16.27-.08.71.22.86h0Z"/>
  <path class="cls-1" d="M121.04,4.59c.04,3.75-.31,7.48-1.05,11.16l1.14-.15c-.4-.68-.89-1.32-1.47-1.86-.5-.46-1.16-1.06-1.87-1.1-1.39-.06-2.05,1.76-1.94,2.89.13,1.27,1.01,2.35,2.29,2.57s2.54-.36,3.17-1.46c.4-.7-.68-1.33-1.08-.63-.76,1.34-2.89,1.12-3.13-.49-.05-.34-.01-.7.12-1.02.05-.12.14-.28.23-.38.25-.27.39-.21.66-.03.81.53,1.45,1.31,1.94,2.14.26.44,1.03.39,1.14-.15.77-3.78,1.14-7.63,1.1-11.49,0-.8-1.26-.81-1.25,0h0Z"/>
  <path class="cls-1" d="M123.67,10.81v.89c0,.16.07.33.18.44.06.06.12.1.2.13.07.04.15.06.24.05.16,0,.33-.06.44-.18s.18-.27.18-.44v-.89c0-.16-.07-.33-.18-.44-.06-.06-.12-.1-.2-.13-.07-.04-.15-.06-.24-.05-.16,0-.33.06-.44.18s-.18.27-.18.44h0Z"/>
  <path class="cls-1" d="M124.08,14.52l.49,2.69c.06.32.47.53.77.44.35-.11.5-.42.44-.77l-.49-2.69c-.06-.32-.47-.53-.77-.44-.35.11-.5.42-.44.77h0Z"/>
  <path class="cls-1" d="M131.85,11.95c-1.44.22-2.16,1.71-2.52,2.96-.23.8-.46,1.68-.06,2.46.35.69,1.11,1.1,1.85,1.2,1.04.14,2.01-.31,2.92-.76.3-.15.39-.58.22-.86-.18-.31-.55-.37-.86-.22-.68.34-1.54.76-2.26.58-.28-.07-.54-.19-.72-.43-.15-.2-.15-.55-.08-.88.14-.67.32-1.33.63-1.9.16-.29.28-.47.53-.68.05-.05.15-.11.28-.17.04-.02.04-.02,0,0,.04-.02.08-.03.13-.04.09-.03.18-.04.27-.06.33-.05.52-.47.44-.77-.1-.36-.43-.49-.77-.44h0Z"/>
  <path class="cls-1" d="M139.51,6.94c.49,3.83.99,7.66,1.48,11.48.06.47.48.77.94.54,1.05-.54,1.9-1.39,2.43-2.45.36-.72-.72-1.35-1.08-.63-.45.88-1.1,1.55-1.99,2l.94.54c-.49-3.83-.99-7.66-1.48-11.48-.1-.79-1.35-.8-1.25,0h0Z"/>
  <path class="cls-1" d="M139.41,12.6c2.38,0,4.75-.38,7.01-1.11.76-.25.44-1.45-.33-1.21-2.16.7-4.4,1.06-6.67,1.07-.8,0-.81,1.25,0,1.25h0Z"/>
  <path class="cls-1" d="M30.4,131.41V48.74c0-.8-1.25-.81-1.25,0v82.67c0,.8,1.25.81,1.25,0h0Z"/>
  <g>
    <path class="cls-1" d="M8.29,101.84c6.24,2.18,12.43,4.51,18.56,6.99v-1.21c-.75.19-1.43.09-2.1-.3s-1.33.68-.63,1.08c.96.55,1.99.69,3.06.43.66-.16.53-.99,0-1.21-6.13-2.48-12.32-4.81-18.56-6.99-.76-.27-1.09.94-.33,1.21h0Z"/>
    <path class="cls-1" d="M11.19,104.17c4.57-3.66,10-6.12,15.74-7.23.79-.15.45-1.36-.33-1.21-5.97,1.15-11.55,3.76-16.3,7.55-.63.5.26,1.38.88.88h0Z"/>
    <path class="cls-1" d="M22.04,105.07c-.5-1.38-.8-2.81-.87-4.28-.01-.34-.28-.62-.62-.62-.33,0-.64.29-.62.62.07,1.57.37,3.13.91,4.61.12.32.42.53.77.44.31-.08.55-.45.44-.77h0Z"/>
    <path class="cls-1" d="M17.01,92.39c-.89.4-.79,1.65-.15,2.22.36.33.81.5,1.25.69s.93.37,1.42.48c.96.22,1.93.21,2.83-.2.76-.34,1.4-.98,1.64-1.79.35-1.16-.18-2.33-.69-3.34-.36-.72-1.44-.09-1.08.63s.86,1.65.54,2.46c-.23.6-.85.94-1.45,1.08-.84.19-1.73-.08-2.51-.38-.35-.13-.74-.27-1.04-.49-.06-.04-.11-.1-.15-.16.03.05-.03-.1-.02-.03,0-.05,0-.09,0-.11-.03.04-.07.06.03.01.31-.14.38-.59.22-.86-.19-.32-.55-.36-.86-.22h0Z"/>
    <path class="cls-1" d="M9.29,89.89c4.54-.29,9.08-.4,13.63-.33.8.01.8-1.24,0-1.25-4.55-.07-9.09.04-13.63.33-.8.05-.8,1.3,0,1.25h0Z"/>
    <path class="cls-1" d="M19.39,91.9l-.5-4.45c-.04-.34-.26-.62-.62-.62-.31,0-.66.29-.62.62l.5,4.45c.04.34.26.62.62.62.31,0,.66-.29.62-.62h0Z"/>
    <path class="cls-1" d="M18.33,87.14l3.03-1c.78-.26,1.71-.47,2.27-1.13.59-.69.5-1.67-.17-2.27s-1.54-.79-2.37-.99c-1.17-.29-2.35-.5-3.55-.64l.32,1.16c1.39-.62,2.86-1.04,4.36-1.29.33-.06.52-.47.44-.77-.1-.35-.43-.49-.77-.44-1.61.27-3.16.75-4.65,1.42-.25.11-.35.46-.29.71.08.29.33.43.6.46,1.08.13,2.16.33,3.21.59.44.11.9.2,1.32.38.27.11.62.33.7.54s-.09.38-.33.52c-.36.22-.78.33-1.18.47l-3.26,1.08c-.76.25-.43,1.46.33,1.21h0Z"/>
    <path class="cls-1" d="M15.94,76.38c1.06.67,2.24,1.09,3.48,1.24,1.04.13,2.55.19,2.91-1.07.31-1.05-.4-2.15-1.07-2.9-.73-.81-1.7-1.39-2.74-1.68l.15,1.14c.56-.26,1.25-.09,1.84-.16.65-.07,1.3-.27,1.71-.8.81-1.05-.24-2.8-1.55-2.18-.31.14-.38.58-.22.86.18.31.55.37.86.22-.02,0-.09.05-.11.02-.06-.07.03.06.02.03.04.1.1.15.07.24.02-.09-.08.1-.11.12-.12.11-.3.16-.46.2-.39.09-.79.05-1.18.06-.52,0-1.01.08-1.49.31-.5.24-.34,1.01.15,1.14.75.21,1.43.6,1.99,1.15.28.27.51.58.71.92.15.25.32.59.27.9-.05.29-.38.3-.62.3-.47.01-.94-.03-1.39-.12-.92-.18-1.78-.52-2.57-1.02-.68-.43-1.31.65-.63,1.08h0Z"/>
    <path class="cls-1" d="M6.92,67.69l15.41-.37c.8-.02.81-1.27,0-1.25l-15.41.37c-.8.02-.81,1.27,0,1.25h0Z"/>
  </g>
  <text class="cls-3" transform="translate(73.95 72.08)"><tspan x="0" y="0">TP</tspan></text>
  <text class="cls-3" transform="translate(75.23 117.54)"><tspan x="0" y="0">FP</tspan></text>
  <text class="cls-3" transform="translate(133.48 117.54)"><tspan x="0" y="0">TN</tspan></text>
  <text class="cls-3" transform="translate(134.34 72.08)"><tspan x="0" y="0">FN</tspan></text>
</svg>