<?xml version="1.0" encoding="UTF-8"?>
<svg id="Layer_1" xmlns="http://www.w3.org/2000/svg" version="1.1" viewBox="0 0 410 320">
  <!-- Generator: Adobe Illustrator 29.1.0, SVG Export Plug-In . SVG Version: 2.1.0 Build 142)  -->
  <defs>
    <style>
      .st0 {
        fill-rule: evenodd;
      }
    </style>
  </defs>
  <path d="M278,120h68.6v12.7h-27.2v66.6h-13.6v-66.6h-27.8v-12.7h0Z"/>
  <path d="M165.2,120v12.7h-55v20.4h44.2v12.7h-44.2v20.9h55v12.7h-68.6v-66.6h0v-12.7h68.6Z"/>
  <path d="M199.4,120.1h-17.8l63.8,79.3h17.9l-31.9-39.6,31.9-39.6h-17.8l-23,28.5-23-28.6h0Z"/>
  <path d="M217.7,176.7l-8.9-11.1-27.2,33.8h17.9l18.3-22.7h-.1Z"/>
  <path class="st0" d="M97,199.3l-63.9-79.3h-17v79.3h13.6v-62.4l50.2,62.4h17.1Z"/>
  <path d="M349.7,198.9c-1,0-1.8-.3-2.6-1-.7-.7-1.1-1.5-1.1-2.5s.3-1.8,1.1-2.5,1.6-1,2.6-1,1.8.3,2.5,1,1.1,1.5,1.1,2.5-.2,1.3-.5,1.8-.8,1-1.3,1.3-1.1.5-1.8.5h0Z"/>
  <path d="M372.9,165.4h6v23.2c0,2.1-.5,4-1.4,5.5s-2.2,2.7-3.8,3.5c-1.6.8-3.5,1.2-5.7,1.2s-3.7-.4-5.3-1c-1.6-.7-2.8-1.7-3.7-3.1-.9-1.4-1.4-3.1-1.4-5.1h6c0,.9.2,1.7.6,2.3s.9,1.1,1.6,1.5c.7.3,1.5.5,2.4.5s1.8-.2,2.5-.6c.7-.4,1.2-1,1.5-1.8.4-.8.5-1.8.5-2.9v-23.2h.2,0Z"/>
  <path d="M403.8,174.5c-.1-1.4-.8-2.5-1.9-3.3s-2.6-1.2-4.4-1.2-2.4.2-3.3.6c-.9.4-1.6.9-2.1,1.5s-.7,1.4-.7,2.2.2,1.3.5,1.8.8.9,1.3,1.3c.6.4,1.2.6,1.8.9.7.2,1.4.4,2,.6l3.1.8c1.3.3,2.5.7,3.7,1.2s2.2,1.1,3.2,1.9c.9.8,1.7,1.7,2.2,2.7.5,1.1.8,2.3.8,3.7s-.5,3.6-1.5,5.1-2.5,2.6-4.4,3.4c-1.9.8-4.2,1.2-6.9,1.2s-4.9-.4-6.8-1.2-3.4-2-4.5-3.5-1.7-3.4-1.7-5.6h6c0,1.1.5,2.1,1.1,2.9.6.8,1.5,1.3,2.5,1.7s2.2.6,3.4.6,2.5-.2,3.5-.6c1-.4,1.8-.9,2.3-1.6.6-.7.9-1.5.9-2.5s-.3-1.6-.8-2.1c-.5-.6-1.2-1-2.1-1.4s-2-.7-3.2-1l-3.8-1c-2.8-.7-4.9-1.8-6.5-3.2s-2.4-3.3-2.4-5.7.5-3.7,1.6-5.1c1.1-1.5,2.5-2.6,4.4-3.4,1.9-.8,4-1.2,6.3-1.2s4.5.4,6.3,1.2,3.2,1.9,4.2,3.4c1,1.4,1.6,3.1,1.6,4.9h-5.8,0Z"/>
</svg>