<?xml version="1.0" encoding="UTF-8"?>
<svg id="Layer_1" xmlns="http://www.w3.org/2000/svg" version="1.1" viewBox="0 0 80 80">
  <!-- Generator: Adobe Illustrator 29.1.0, SVG Export Plug-In . SVG Version: 2.1.0 Build 142)  -->
  <defs>
    <style>
      .st0 {
        fill: #00dc82;
      }
    </style>
  </defs>
  <path class="st0" d="M44.9,61.1h29.8c.9,0,1.9-.2,2.7-.7s1.5-1.1,2-1.9.7-1.7.7-2.6-.2-1.8-.7-2.6l-20-33.6c-.5-.8-1.2-1.4-2-1.9s-1.8-.7-2.7-.7-1.9.2-2.7.7-1.5,1.1-2,1.9l-5.1,8.6-10-16.8c-.5-.8-1.2-1.5-2-1.9-.8-.5-1.8-.7-2.7-.7s-1.9.2-2.7.7c-.8.5-1.5,1.1-2,1.9L.7,53.3c-.5.8-.7,1.7-.7,2.6s.2,1.8.7,2.6,1.1,1.5,2,1.9,1.8.7,2.7.7h18.7c7.4,0,12.8-3.2,16.6-9.3l9.1-15.3,4.9-8.2,14.7,24.6h-19.5s-4.9,8.2-4.9,8.2ZM23.7,52.9h-13L30.2,20.1l9.7,16.4-6.5,11c-2.5,4-5.3,5.4-9.7,5.4h0Z"/>
</svg>