<?xml version="1.0" encoding="UTF-8"?>
<svg id="Layer_1" xmlns="http://www.w3.org/2000/svg" version="1.1" viewBox="0 0 388.1 388.1">
  <!-- Generator: Adobe Illustrator 29.1.0, SVG Export Plug-In . SVG Version: 2.1.0 Build 142)  -->
  <defs>
    <style>
      .st0, .st1 {
        fill: #f29111;
      }

      .st1, .st2 {
        fill-rule: evenodd;
      }

      .st3, .st2 {
        fill: #00758f;
      }
    </style>
  </defs>
  <path class="st3" d="M93.3,302.7h-15c-.5-25.3-2-49.2-4.4-71.5h-.1l-22.8,71.5h-11.4l-22.7-71.5h-.1c-1.7,21.4-2.7,45.3-3.2,71.5H0c.9-31.9,3.1-61.8,6.6-89.7h18.6l21.6,65.9h.1l21.7-65.9h17.8c3.9,32.7,6.2,62.6,6.9,89.7M158.3,236.5c-6.1,33.2-14.1,57.3-24.1,72.3-7.8,11.6-16.3,17.4-25.6,17.4s-5.5-.7-9.1-2.2v-8c1.8.3,3.8.4,6.2.4,4.3,0,7.8-1.2,10.5-3.6,3.2-2.9,4.8-6.2,4.8-9.8s-1.2-7.6-3.7-15.3l-16.4-51.2h14.7l11.8,38.3c2.6,8.7,3.8,14.8,3.3,18.2,6.5-17.3,11-36.1,13.5-56.5h14.2"/>
  <path class="st0" d="M223.9,277.8c0,7.6-2.8,13.9-8.3,18.7-5.6,4.9-13,7.3-22.4,7.3s-17.2-2.8-25.4-8.4l3.8-7.7c7.1,3.5,13.5,5.3,19.2,5.3s9.6-1.2,12.7-3.6c3-2.4,4.9-5.7,4.9-10s-3.7-9.9-10.5-13.7c-6.3-3.5-18.8-10.7-18.8-10.7-6.8-5-10.2-10.3-10.2-19.1s2.5-13.1,7.6-17.6c5.1-4.5,11.6-6.7,19.7-6.7s15.9,2.2,22.7,6.7l-3.5,7.7c-5.8-2.5-11.6-3.7-17.2-3.7s-8.1,1.1-10.6,3.3c-2.5,2.2-4,5-4,8.5,0,5.3,3.8,9.9,10.8,13.8,6.4,3.5,19.2,10.8,19.2,10.8,7,5,10.5,10.3,10.5,19"/>
  <path class="st1" d="M250.6,284.7c-3.6-5.8-5.4-15.2-5.4-28.2,0-22.6,6.9-33.9,20.5-33.9s12.4,2.7,15.8,8.1c3.6,5.9,5.4,15.2,5.4,27.9,0,22.8-6.9,34.2-20.5,34.2s-12.4-2.7-15.8-8.1M303.9,304.9l-16.4-8.1c1.5-1.2,2.9-2.5,4.1-4,7-8.2,10.5-20.4,10.5-36.5,0-29.7-11.6-44.5-34.9-44.5s-20.3,3.8-26.6,11.3c-7,8.2-10.5,20.4-10.5,36.4s3.1,27.3,9.3,34.7c5.6,6.6,14.2,10,25.6,10s8.2-.5,11.7-1.6l21.4,12.5,5.8-10.1"/>
  <path class="st0" d="M357.6,302.7h-42.5v-89.7h14.3v78.7h28.2v11M367.8,302.7h2.4v-9.1h3.1v-1.9h-8.7v1.9h3.2v9.1h0ZM385.9,302.7h2.2v-11h-3.4l-2.7,7.5-3-7.5h-3.2v11h2.1v-8.4h.1l3.1,8.4h1.6l3.1-8.4v8.4"/>
  <path class="st2" d="M375.6,182.9c-8.7-.2-15.4.6-21,3-1.6.7-4.2.7-4.4,2.7.9.9,1,2.3,1.7,3.5,1.3,2.2,3.6,5.1,5.6,6.6,2.3,1.7,4.5,3.5,6.9,5,4.2,2.6,9,4.1,13.1,6.7,2.4,1.5,4.8,3.5,7.1,5.1,1.2.9,1.9,2.3,3.5,2.8v-.3c-.8-1-1-2.4-1.7-3.5-1.1-1.1-2.2-2.1-3.2-3.1-3.1-4.2-7-7.9-11.2-10.9-3.5-2.4-11-5.6-12.4-9.6l-.2-.2c2.4-.2,5.2-1.1,7.5-1.7,3.7-1,7-.8,10.8-1.7,1.7-.4,3.5-1,5.2-1.5v-1c-2-1.9-3.4-4.6-5.4-6.4-5.5-4.8-11.6-9.4-17.8-13.3-3.4-2.2-7.7-3.6-11.2-5.4-1.3-.7-3.5-1-4.2-2.1-1.9-2.4-3-5.5-4.4-8.3-3.1-6-6.2-12.6-8.9-18.9-1.9-4.2-3.1-8.5-5.5-12.4-11.1-18.4-23.2-29.6-41.8-40.5-4-2.3-8.8-3.3-13.8-4.4-2.7-.1-5.4-.3-8.1-.4-1.7-.8-3.5-2.8-5-3.8-6.2-3.9-22.1-12.4-26.6-1.2-2.9,7.1,4.3,14,6.8,17.6,1.8,2.5,4.2,5.3,5.5,8.1.8,1.8,1,3.8,1.7,5.7,1.7,4.8,3.3,10.1,5.6,14.5,1.2,2.3,2.5,4.7,4,6.7.9,1.2,2.4,1.7,2.7,3.7-1.5,2.2-1.6,5.4-2.5,8.1-3.9,12.2-2.4,27.4,3.1,36.4,1.7,2.7,5.8,8.7,11.4,6.4,4.9-1.9,3.8-8.1,5.2-13.5.3-1.3.1-2.2.8-3v.2c1.5,3,3,5.9,4.4,9,3.4,5.3,9.2,10.8,14.1,14.5,2.6,2,4.6,5.3,7.9,6.5v-.3h-.2c-.7-1-1.6-1.4-2.5-2.2-1.9-2-4.1-4.3-5.6-6.5-4.5-6.1-8.5-12.8-12.1-19.7-1.7-3.4-3.2-7.1-4.7-10.4-.6-1.3-.6-3.3-1.7-3.9-1.6,2.4-4,4.4-5.2,7.4-2.1,4.7-2.3,10.4-3,16.4-.4.1-.2,0-.4.2-3.5-.9-4.6-4.4-5.9-7.5-3.2-7.7-3.8-20.1-1-29,.8-2.3,4-9.4,2.7-11.6-.7-2.1-2.8-3.2-4-4.9-1.4-2.1-2.9-4.7-3.9-6.9-2.6-6.1-3.9-12.8-6.7-18.9-1.3-2.8-3.6-5.8-5.4-8.3-2.1-2.9-4.3-5-5.9-8.5-.5-1.2-1.3-3.1-.4-4.4.2-.9.7-1.2,1.5-1.4,1.4-1.2,5.4.3,6.8,1,4,1.6,7.4,3.1,10.7,5.4,1.5,1.1,3.1,3.1,5.1,3.7h2.3c3.5.8,7.4.2,10.6,1.2,5.7,1.8,10.9,4.6,15.6,7.5,14.2,9,25.8,21.8,33.7,37.1,1.3,2.5,1.8,4.8,3,7.4,2.3,5.3,5.1,10.7,7.4,15.9,2.3,5.1,4.4,10.3,7.7,14.5,1.6,2.3,8.1,3.5,11,4.7,2.2,1,5.5,1.8,7.5,3,3.7,2.3,7.3,4.9,10.8,7.4,1.7,1.3,7.1,4,7.5,6.2"/>
  <path class="st2" d="M265.3,88.7c-1.5,0-3,.2-4.4.5v.2h.2c.9,1.7,2.4,2.9,3.5,4.4.9,1.7,1.6,3.5,2.5,5.2.1-.1.2-.2.2-.2,1.5-1.1,2.3-2.8,2.3-5.4-.7-.8-.8-1.5-1.3-2.3-.6-1.1-2.1-1.6-2.9-2.5"/>
</svg>