<?xml version="1.0" encoding="UTF-8"?>
<svg id="Layer_1" xmlns="http://www.w3.org/2000/svg" version="1.1" viewBox="0 0 178 178">
  <!-- Generator: Adobe Illustrator 29.1.0, SVG Export Plug-In . SVG Version: 2.1.0 Build 142)  -->
  <defs>
    <style>
      .st0, .st1 {
        fill: #1f305f;
      }

      .st2 {
        fill: #c0765a;
      }

      .st1 {
        fill-rule: evenodd;
      }
    </style>
  </defs>
  <path class="st1" d="M174,30c-2.7,0-1.9,1.3-7.8,2.8-6,1.5-13.2.6-19.6,3.3-16.8,7-19.5,34.3-39.5,44.8-13.1,7.4-26.5,9.1-38.5,12.9-9.6,3.8-15.6,6.4-22.6,12.5-5.5,4.7-6.8,9.3-12.5,15.2-5.8,7.9-27.7.9-33.4,10.8,3,1.9,4.7,2.5,9.9,1.8-1.1,2.1-8,4.8-6.7,7.8,0,0,16.6,3,30.7-5.4,6.5-2.7,12.7-8.3,22.8-9.6,13.2-1.8,28,2.8,43.9,4-3.3,6.5-6.7,10.3-10.3,15.7-1.1,1.2,1,2.3,4.8,1.6,6.9-1.7,12-3.6,17-7,6.5-4.5,9.3-8.6,14.8-15.1,4.8,7.6,21.6,9.3,25,2.7-6.4-2.7-7.8-16.9-5.6-23,2.6-5.8,4.5-14.1,6.6-21.7,1.9-6.9,3.1-17.4,5.3-22.8,2.7-6.7,7.9-8.8,11.9-12.3s7.9-6.5,7.7-14.6c0-2.6-1.4-4.1-3.9-4h0Z"/>
  <path class="st2" d="M5,140.2c10.3.3,13.1,0,21.3-3.5,6.9-3,16.2-11.1,24.4-13.7,12-3.9,24.9-3.3,37.7-1.8,4.3.5,8.6,1.2,11.7.9,4.8-2.9,5-10.9,8-11.6-.8,15.4-7.4,25.3-14.1,34.3,13.9-2.5,23.3-11.2,28.9-21.9,1.7-3.3,4.6-8.6,5.8-12.3,1,2.4-1.3,4-.2,6.7,9-7.4,13.2-15.8,16.9-28.2,4.2-14.3,8.6-26.6,11.3-30.8,2.7-4.1,6.8-6.7,10.6-9.3,4.3-3,8.1-6.1,8.8-11.9-4.5-.4-5.6-1.5-6.2-3.7-2.3,1.3-4.3,1.5-6.7,1.6-2,0-4.3,0-7,.2-22.6,2.3-23.7,24.4-40.1,40.7-1.1,1-2.9,2.6-4.1,3.4-5.1,3.8-10.5,5.9-16.2,8.1-9.3,3.5-18.1,4.6-26.8,7.6-6.4,2.2-12.3,4.8-17.6,8.4-1.3.9-3.1,2.5-4.2,3.4-3.1,2.5-5.1,5.3-7.1,8.2-2,3-4,6-6.9,8.9-4.8,4.7-22.8,1.4-29.1,5.8-.7.5-1.3,1.1-1.7,1.8,3.4,1.6,5.8.6,9.7,1,.5,3.8-8.2,6-6.9,7.8h0Z"/>
  <path class="st1" d="M149,44.5c3.2,2.8,9.9.5,8.7-5-5-.4-7.9,1.3-8.7,5Z"/>
  <path class="st0" d="M171,38c-.8,1.8-2.5,4.1-2.5,8.6,0,.8-.6,1.3-.6.1,0-4.5,1.2-6.4,2.5-8.9.6-1,.9-.6.6.1Z"/>
  <path class="st0" d="M170,37.3c-1,1.7-3.4,4.8-3.8,9.4,0,.8-.7,1.3-.6,0,.4-4.4,2.4-7.2,3.8-9.6.7-1,1-.5.6.2Z"/>
  <path class="st0" d="M169,36.4c-1.2,1.6-4.9,5.3-5.7,9.8-.1.8-.8,1.2-.6,0,.8-4.4,4-7.8,5.7-10.1.7-.9,1-.5.6.2Z"/>
  <path class="st0" d="M169,35.4c-1.4,1.4-5.8,6.2-7.2,10.5-.2.7-1,1.1-.6,0,1.4-4.2,5.3-8.8,7.3-10.8.9-.8,1.1-.3.5.3h0Z"/>
</svg>