<?xml version="1.0" encoding="UTF-8"?>
<svg id="Layer_1" xmlns="http://www.w3.org/2000/svg" version="1.1" viewBox="0 0 131.8 300">
  <!-- Generator: Adobe Illustrator 29.1.0, SVG Export Plug-In . SVG Version: 2.1.0 Build 142)  -->
  <defs>
    <style>
      .st0 {
        fill: #b8c4c2;
      }

      .st1 {
        fill: #10aa50;
      }

      .st2 {
        fill: #12924f;
      }
    </style>
  </defs>
  <path class="st1" d="M128.9,120.3c-15.3-67.5-47.2-85.5-55.4-98.2-3.4-5.6-6.3-11.4-8.9-17.4-.4,6-1.2,9.8-6.3,14.3C48.1,28.1,4.6,63.6,1,140.3c-3.4,71.6,52.6,115.7,60,120.2,5.7,2.8,12.6,0,16-2.5,27-18.5,63.9-67.9,52-137.7"/>
  <path class="st0" d="M67,222.5c-1.4,17.7-2.4,28-6,38.1,0,0,2.3,16.9,4,34.7h5.8c1.4-12.6,3.5-25.1,6.4-37.4-7.6-3.7-9.9-19.9-10.2-35.5Z"/>
  <path class="st2" d="M77.2,257.9h0c-7.6-3.5-9.8-20.1-10.2-35.5,1.9-25.4,2.4-50.9,1.7-76.4-.4-13.4.2-123.7-3.3-139.9,2.4,5.5,5.1,10.8,8.2,15.9,8.1,12.7,40.1,30.7,55.4,98.2,11.9,69.7-24.8,118.9-51.7,137.6Z"/>
</svg>