<?xml version="1.0" encoding="UTF-8"?>
<svg id="Layer_1" xmlns="http://www.w3.org/2000/svg" version="1.1" viewBox="0 0 250 250">
  <!-- Generator: Adobe Illustrator 29.1.0, SVG Export Plug-In . SVG Version: 2.1.0 Build 142)  -->
  <defs>
    <style>
      .st0 {
        fill: #231f20;
      }
    </style>
  </defs>
  <path class="st0" d="M185.4,138.4c-9.7,0-18.4,4.3-24.4,11.1l-15.3-10.8c1.6-4.5,2.6-9.3,2.6-14.3s-.9-9.7-2.5-14.1l15.3-10.7c6,6.8,14.7,11,24.4,11,18,0,32.6-14.6,32.6-32.6s-14.6-32.6-32.6-32.6-32.6,14.6-32.6,32.6.5,6.3,1.4,9.2l-15.3,10.7c-6.4-7.9-15.6-13.4-26-15.1v-18.4c14.7-3.1,25.9-16.2,25.9-31.9C138.7,14.6,124.1,0,106.1,0s-32.6,14.6-32.6,32.6,10.8,28.4,25.3,31.7v18.7c-19.7,3.5-34.8,20.7-34.8,41.4s15.2,38.1,35.1,41.4v19.7c-14.6,3.2-25.6,16.2-25.6,31.8s14.6,32.6,32.6,32.6,32.6-14.6,32.6-32.6-11-28.6-25.6-31.8v-19.7c10.1-1.7,19.2-7,25.6-14.9l15.4,10.9c-.9,2.9-1.3,6-1.3,9.2,0,18,14.6,32.6,32.6,32.6s32.6-14.6,32.6-32.6-14.6-32.6-32.6-32.6ZM185.4,62.2c8.7,0,15.8,7.1,15.8,15.8s-7.1,15.8-15.8,15.8-15.8-7.1-15.8-15.8,7.1-15.8,15.8-15.8ZM90.3,32.6c0-8.7,7.1-15.8,15.8-15.8s15.8,7.1,15.8,15.8-7.1,15.8-15.8,15.8-15.8-7.1-15.8-15.8ZM121.9,217.2c0,8.7-7.1,15.8-15.8,15.8s-15.8-7.1-15.8-15.8,7.1-15.8,15.8-15.8,15.8,7.1,15.8,15.8ZM106.1,146.3c-12.1,0-22-9.9-22-22s9.9-22,22-22,22,9.9,22,22-9.9,22-22,22ZM185.4,186.7c-8.7,0-15.8-7.1-15.8-15.8s7.1-15.8,15.8-15.8,15.8,7.1,15.8,15.8-7.1,15.8-15.8,15.8Z"/>
</svg>