<?xml version="1.0" encoding="UTF-8"?>
<svg id="Layer_1" xmlns="http://www.w3.org/2000/svg" version="1.1" viewBox="0 0 24.1 25.6">
  <!-- Generator: Adobe Illustrator 29.1.0, SVG Export Plug-In . SVG Version: 2.1.0 Build 142)  -->
  <defs>
    <style>
      .st0 {
        fill: #f60;
      }
    </style>
  </defs>
  <path class="st0" d="M22.9,10.4c.7,0,1.2.5,1.2,1.2v12.7c0,.7-.5,1.2-1.2,1.2H1.2c-.7,0-1.2-.5-1.2-1.2h0V1.3c0-.7.5-1.2,1.2-1.2h2.6c.7,0,1.2.5,1.2,1.2v8c0,.6.5,1.1,1.1,1.1h2c.6,0,1.1-.5,1.1-1.1V1.3c0-.7.5-1.2,1.2-1.2h2.6c.7,0,1.2.5,1.2,1.2v7.9c0,.6.5,1.2,1.1,1.2h7.5,0ZM19.4,19.1v-2.5c0-.7-.5-1.2-1.2-1.2h-2.6c-.7,0-1.2.5-1.2,1.2v2.5c0,.7.5,1.2,1.2,1.2h2.6c.7,0,1.2-.5,1.2-1.2h0Z"/>
</svg>