<?xml version="1.0" encoding="UTF-8"?>
<svg id="Layer_1" xmlns="http://www.w3.org/2000/svg" version="1.1" xmlns:xlink="http://www.w3.org/1999/xlink" viewBox="0 0 64 64">
  <!-- Generator: Adobe Illustrator 29.1.0, SVG Export Plug-In . SVG Version: 2.1.0 Build 142)  -->
  <defs>
    <style>
      .st0 {
        fill: #fff;
      }

      .st1 {
        fill: url(#linear-gradient1);
      }

      .st2 {
        fill: url(#linear-gradient);
      }

      .st3 {
        fill: #ff8100;
      }
    </style>
    <linearGradient id="linear-gradient" x1="-.7" y1="72.4" x2="24.1" y2="18.7" gradientTransform="translate(0 80) scale(1 -1)" gradientUnits="userSpaceOnUse">
      <stop offset="0" stop-color="#fc801d"/>
      <stop offset=".6" stop-color="#fe2857"/>
    </linearGradient>
    <linearGradient id="linear-gradient1" x1="4.2" y1="20" x2="62.9" y2="78.7" gradientTransform="translate(0 80) scale(1 -1)" gradientUnits="userSpaceOnUse">
      <stop offset=".2" stop-color="#fe2857"/>
      <stop offset=".7" stop-color="#007eff"/>
    </linearGradient>
  </defs>
  <path class="st3" d="M15.9,5.8H4.1C1.8,5.8,0,7.7,0,9.9v11.5c0,1.2.5,2.3,1.4,3.1l38.2,32.7c.7.6,1.7,1,2.7,1h11.9c2.2,0,4.1-1.8,4.1-4.1v-11.5c0-1.2-.5-2.3-1.4-3.1L18.6,6.8c-.7-.6-1.7-1-2.6-1"/>
  <path class="st2" d="M14.5,5.8H4.1C1.8,5.8,0,7.6,0,9.9v13.1c0,.2,0,.4,0,.6l5.3,36.9c.3,2,2,3.5,4,3.5h15.7c2.2,0,4.1-1.8,4.1-4.1v-18.5c0-.4,0-.9-.2-1.3l-10.5-31.5c-.6-1.7-2.1-2.8-3.9-2.8"/>
  <path class="st1" d="M59.9,0H26c-1.6,0-3.1,1-3.7,2.5L6.2,40c-.2.5-.3,1-.3,1.6v18.4c0,2.2,1.8,4.1,4.1,4.1h18c.8,0,1.6-.2,2.3-.7l32.1-21.4c1.1-.8,1.8-2,1.8-3.4V4.1c0-2.3-1.8-4.1-4.1-4.1h0Z"/>
  <path d="M52,12H12v40h40V12Z"/>
  <path class="st0" d="M25.8,29.4h-3v-9.8h3v-2.6h-8.8v2.6h3v9.8h-3v2.6h8.8v-2.6ZM31.7,17v10.1c0,.4,0,.8-.3,1.2s-.5.6-.8.8-.7.3-1.2.3h-2.1v2.7h2.5c.9,0,1.7-.2,2.5-.6.7-.4,1.3-1,1.7-1.7s.6-1.5.6-2.4v-10.3h-2.9ZM17,47h16v-3h-16v3Z"/>
</svg>