<?xml version="1.0" encoding="UTF-8"?>
<svg id="Layer_1" xmlns="http://www.w3.org/2000/svg" version="1.1" xmlns:xlink="http://www.w3.org/1999/xlink" viewBox="0 0 64 64">
  <!-- Generator: Adobe Illustrator 29.1.0, SVG Export Plug-In . SVG Version: 2.1.0 Build 142)  -->
  <defs>
    <style>
      .st0, .st1 {
        fill: #fff;
      }

      .st2 {
        fill: #00d886;
      }

      .st3 {
        fill: url(#linear-gradient1);
      }

      .st1 {
        fill-rule: evenodd;
      }

      .st4 {
        fill: url(#linear-gradient);
      }
    </style>
    <linearGradient id="linear-gradient" x1="7.6" y1="15.3" x2="61.2" y2="40.1" gradientTransform="translate(0 80) scale(1 -1)" gradientUnits="userSpaceOnUse">
      <stop offset="0" stop-color="#00d886"/>
      <stop offset=".6" stop-color="#f0eb18"/>
    </linearGradient>
    <linearGradient id="linear-gradient1" x1="60" y1="20.2" x2="1.3" y2="78.9" gradientTransform="translate(0 80) scale(1 -1)" gradientUnits="userSpaceOnUse">
      <stop offset=".3" stop-color="#f0eb18"/>
      <stop offset=".7" stop-color="#00c4f4"/>
    </linearGradient>
  </defs>
  <path class="st2" d="M5.8,48.1v11.9c0,2.2,1.8,4.1,4.1,4.1h11.5c1.2,0,2.3-.5,3.1-1.4L57.2,24.4c.6-.7,1-1.7,1-2.6v-11.9c0-2.2-1.8-4.1-4.1-4.1h-11.5c-1.2,0-2.3.5-3.1,1.4L6.8,45.4c-.6.7-1,1.7-1,2.7"/>
  <path class="st4" d="M5.8,49.5v10.4c0,2.2,1.8,4.1,4.1,4.1h13.1c.2,0,.4,0,.6,0l36.9-5.3c2-.3,3.5-2,3.5-4v-15.7c0-2.2-1.8-4.1-4.1-4.1h-18.5c-.4,0-.9,0-1.3.2l-31.5,10.5c-1.7.6-2.8,2.1-2.8,3.9"/>
  <path class="st3" d="M0,4.1v34c0,1.6,1,3.1,2.5,3.7l37.5,16.1c.5.2,1.1.3,1.6.3h18.4c2.2,0,4.1-1.8,4.1-4.1v-18c0-.8-.2-1.6-.7-2.3L41.9,1.8C41.2.7,39.9,0,38.5,0H4.1C1.8,0,0,1.8,0,4.1"/>
  <path d="M52,12H12v40h40V12Z"/>
  <path class="st1" d="M23.5,17h-6.4v15h2.9v-5.7h3.4c1.1,0,2-.2,2.8-.6.8-.4,1.4-.9,1.9-1.6.4-.7.7-1.5.7-2.5s-.2-1.7-.7-2.4c-.4-.7-1-1.2-1.8-1.6-.8-.4-1.7-.6-2.8-.6M24.6,23.6c-.4.2-.8.3-1.3.3h-3.3v-4.5h3.3c.5,0,.9,0,1.3.3.4.2.7.4.9.8.2.3.3.7.3,1.2,0,.5-.1.8-.3,1.2-.2.3-.5.6-.9.8"/>
  <path class="st0" d="M33.4,31.2c1.2.7,2.5,1,3.9,1h0c1.2,0,2.3-.2,3.3-.7,1-.4,1.8-1.1,2.5-1.9.7-.8,1.1-1.8,1.4-2.8h-3.1c-.2.5-.5,1-.9,1.4-.4.4-.9.7-1.4.9-.6.2-1.2.3-1.8.3-.9,0-1.7-.2-2.4-.7-.7-.4-1.3-1.1-1.7-1.8-.4-.8-.6-1.7-.6-2.6s.2-1.8.6-2.6c.4-.8,1-1.4,1.7-1.8.7-.4,1.5-.7,2.4-.7.6,0,1.2.1,1.8.3.6.2,1,.5,1.4,1,.4.4.7.9.9,1.4h3.1c-.2-1-.7-2-1.4-2.8-.7-.8-1.5-1.5-2.5-1.9-1-.4-2.1-.7-3.3-.7s-2.7.3-3.9,1c-1.2.7-2.1,1.6-2.7,2.8-.7,1.2-1,2.5-1,4s.3,2.8,1,4c.6,1.2,1.6,2.1,2.7,2.8M17,44h16v3h-16v-3Z"/>
</svg>