<?xml version="1.0" encoding="UTF-8"?>
<svg id="svg2" xmlns="http://www.w3.org/2000/svg" version="1.1" xmlns:cc="http://creativecommons.org/ns#" xmlns:dc="http://purl.org/dc/elements/1.1/" xmlns:rdf="http://www.w3.org/1999/02/22-rdf-syntax-ns#" xmlns:svg="http://www.w3.org/2000/svg" xmlns:xlink="http://www.w3.org/1999/xlink" viewBox="0 0 255.1 200">
  <!-- Generator: Adobe Illustrator 29.1.0, SVG Export Plug-In . SVG Version: 2.1.0 Build 142)  -->
  <defs>
    <style>
      .st0 {
        clip-path: url(#clippath-4);
      }

      .st1 {
        fill: #394d54;
      }

      .st2 {
        fill-opacity: .2;
      }

      .st3, .st4 {
        fill: none;
      }

      .st5 {
        clip-path: url(#clippath-1);
      }

      .st4 {
        stroke-linecap: round;
        stroke-width: 3.4px;
      }

      .st4, .st6 {
        stroke: #394d54;
      }

      .st7 {
        clip-path: url(#clippath-3);
      }

      .st8 {
        fill: #d4edf1;
      }

      .st9 {
        fill: #20c2ef;
      }

      .st6 {
        stroke-width: 1.6px;
      }

      .st10 {
        fill-opacity: 0;
      }

      .st11 {
        fill: #17b5eb;
      }

      .st12 {
        clip-path: url(#clippath-2);
      }

      .st13 {
        clip-path: url(#clippath);
      }

      .st14 {
        fill: #00acd3;
      }
    </style>
    <clipPath id="clippath">
      <path class="st3" d="M76,29.5v46h-22v23h-18.4c0,.7-.1,1.3-.2,2-1.2,12.5,1,24.1,6.1,34l1.7,3c1,1.8,2.2,3.5,3.4,5.2,1.2,1.7,1.7,2.6,2.5,3.7,13.3,14.9,33.1,22.1,56,22.1,50.6,0,93.6-22.4,112.7-72.8,13.5,1.4,26.4-2.1,32.3-13.6-9.4-5.4-21.5-3.7-28.4-.2l18.4-52.4-72,46h-23V29.5h-69Z"/>
    </clipPath>
    <clipPath id="clippath-1">
      <path class="st3" d="M76,29.5v46h-22v23h-18.4c0,.7-.1,1.3-.2,2-1.2,12.5,1,24.1,6.1,34l1.7,3c1,1.8,2.2,3.5,3.4,5.2,1.2,1.7,1.7,2.6,2.5,3.7,13.3,14.9,33.1,22.1,56,22.1,50.6,0,93.6-22.4,112.7-72.8,13.5,1.4,26.4-2.1,32.3-13.6-9.4-5.4-21.5-3.7-28.4-.2l18.4-52.4-72,46h-23V29.5h-69Z"/>
    </clipPath>
    <clipPath id="clippath-2">
      <path class="st3" d="M76,29.5v46h-22v23h-18.4c0,.7-.1,1.3-.2,2-1.2,12.5,1,24.1,6.1,34l1.7,3c1,1.8,2.2,3.5,3.4,5.2,1.2,1.7,1.7,2.6,2.5,3.7,13.3,14.9,33.1,22.1,56,22.1,50.6,0,93.6-22.4,112.7-72.8,13.5,1.4,26.4-2.1,32.3-13.6-9.4-5.4-21.5-3.7-28.4-.2l18.4-52.4-72,46h-23V29.5h-69Z"/>
    </clipPath>
    <clipPath id="clippath-3">
      <path class="st3" d="M76,29.5v46h-22v23h-18.4c0,.7-.1,1.3-.2,2-1.2,12.5,1,24.1,6.1,34l1.7,3c1,1.8,2.2,3.5,3.4,5.2,1.2,1.7,1.7,2.6,2.5,3.7,13.3,14.9,33.1,22.1,56,22.1,50.6,0,93.6-22.4,112.7-72.8,13.5,1.4,26.4-2.1,32.3-13.6-9.4-5.4-21.5-3.7-28.4-.2l18.4-52.4-72,46h-23V29.5h-69Z"/>
    </clipPath>
    <clipPath id="clippath-4">
      <path class="st3" d="M76,29.5v46h-22v23h-18.4c0,.7-.1,1.3-.2,2-1.2,12.5,1,24.1,6.1,34l1.7,3c1,1.8,2.2,3.5,3.4,5.2,1.2,1.7,1.7,2.6,2.5,3.7,13.3,14.9,33.1,22.1,56,22.1,50.6,0,93.6-22.4,112.7-72.8,13.5,1.4,26.4-2.1,32.3-13.6-9.4-5.4-21.5-3.7-28.4-.2l18.4-52.4-72,46h-23V29.5h-69Z"/>
    </clipPath>
  </defs>
  <path id="path14" class="st1" d="M147.5,73.2h22.9v23.4h11.6c5.3,0,10.8-1,15.9-2.7,2.5-.8,5.3-2,7.7-3.5-3.2-4.2-4.9-9.5-5.4-14.8-.7-7.1.8-16.4,5.6-22l2.4-2.8,2.9,2.3c7.2,5.8,13.3,13.9,14.3,23.1,8.7-2.6,18.9-2,26.5,2.5l3.1,1.8-1.7,3.2c-6.5,12.6-20,16.5-33.2,15.9-19.8,49.3-62.9,72.7-115.2,72.7s-51.8-10.1-65.9-34c-.8-1.5-1.5-3-2.3-4.6-4.8-10.5-6.4-22.1-5.3-33.6l.3-3.5h19.6v-23.4h22.9v-22.9h45.7v-22.9h27.4v45.7"/>
  <g class="st13">
    <g id="g16">
      <g id="g18">
        <g id="g20">
          <path id="path22" class="st14" d="M123.9,8.4h19.8v19.8h-19.8V8.4Z"/>
          <path id="path24" class="st9" d="M123.9,31.3h19.8v19.8h-19.8v-19.8Z"/>
          <path id="path26" class="st6" d="M126.3,26.6V10.1M129.3,26.6V10.1M132.3,26.6V10.1M135.3,26.6V10.1M138.3,26.6V10.1M141.2,26.6V10.1"/>
          <g id="use28">
            <path id="path261" data-name="path26" class="st6" d="M126.3,49.5v-16.5M129.3,49.5v-16.5M132.3,49.5v-16.5M135.3,49.5v-16.5M138.3,49.5v-16.5M141.2,49.5v-16.5"/>
          </g>
        </g>
        <g id="use30">
          <g id="g201" data-name="g20">
            <path id="path221" data-name="path22" class="st14" d="M146.7,51.1h19.8v-19.8h-19.8v19.8Z"/>
            <path id="path241" data-name="path24" class="st9" d="M146.7,28.3h19.8V8.4h-19.8v19.8Z"/>
            <path id="path262" data-name="path26" class="st6" d="M149.2,33v16.5M152.1,33v16.5M155.1,33v16.5M158.1,33v16.5M161.1,33v16.5M164.1,33v16.5"/>
            <g id="use281" data-name="use28">
              <path id="path263" data-name="path26" class="st6" d="M149.2,10.1v16.5M152.1,10.1v16.5M155.1,10.1v16.5M158.1,10.1v16.5M161.1,10.1v16.5M164.1,10.1v16.5"/>
            </g>
          </g>
        </g>
      </g>
      <g id="use32">
        <g id="g181" data-name="g18">
          <g id="g202" data-name="g20">
            <path id="path222" data-name="path22" class="st14" d="M32.4,54.2h19.8v19.8h-19.8v-19.8Z"/>
            <path id="path242" data-name="path24" class="st9" d="M32.4,77h19.8v19.8h-19.8v-19.8Z"/>
            <path id="path264" data-name="path26" class="st6" d="M34.8,72.3v-16.5M37.8,72.3v-16.5M40.8,72.3v-16.5M43.8,72.3v-16.5M46.8,72.3v-16.5M49.8,72.3v-16.5"/>
            <g id="use282" data-name="use28">
              <path id="path265" data-name="path26" class="st6" d="M34.8,95.2v-16.5M37.8,95.2v-16.5M40.8,95.2v-16.5M43.8,95.2v-16.5M46.8,95.2v-16.5M49.8,95.2v-16.5"/>
            </g>
          </g>
          <g id="use301" data-name="use30">
            <g id="g203" data-name="g20">
              <path id="path223" data-name="path22" class="st14" d="M55.3,96.9h19.8v-19.8h-19.8v19.8Z"/>
              <path id="path243" data-name="path24" class="st9" d="M55.3,74h19.8v-19.8h-19.8v19.8Z"/>
              <path id="path266" data-name="path26" class="st6" d="M57.7,78.7v16.5M60.7,78.7v16.5M63.7,78.7v16.5M66.7,78.7v16.5M69.7,78.7v16.5M72.6,78.7v16.5"/>
              <g id="use283" data-name="use28">
                <path id="path267" data-name="path26" class="st6" d="M57.7,55.8v16.5M60.7,55.8v16.5M63.7,55.8v16.5M66.7,55.8v16.5M69.7,55.8v16.5M72.6,55.8v16.5"/>
              </g>
            </g>
          </g>
        </g>
      </g>
      <g id="use34">
        <g id="g182" data-name="g18">
          <g id="g204" data-name="g20">
            <path id="path224" data-name="path22" class="st14" d="M78.1,54.2h19.8v19.8h-19.8v-19.8Z"/>
            <path id="path244" data-name="path24" class="st9" d="M78.1,77h19.8v19.8h-19.8v-19.8Z"/>
            <path id="path268" data-name="path26" class="st6" d="M80.6,72.3v-16.5M83.5,72.3v-16.5M86.5,72.3v-16.5M89.5,72.3v-16.5M92.5,72.3v-16.5M95.5,72.3v-16.5"/>
            <g id="use284" data-name="use28">
              <path id="path269" data-name="path26" class="st6" d="M80.6,95.2v-16.5M83.5,95.2v-16.5M86.5,95.2v-16.5M89.5,95.2v-16.5M92.5,95.2v-16.5M95.5,95.2v-16.5"/>
            </g>
          </g>
          <g id="use302" data-name="use30">
            <g id="g205" data-name="g20">
              <path id="path225" data-name="path22" class="st14" d="M101,96.9h19.8v-19.8h-19.8v19.8Z"/>
              <path id="path245" data-name="path24" class="st9" d="M101,74h19.8v-19.8h-19.8v19.8Z"/>
              <path id="path2610" data-name="path26" class="st6" d="M103.4,78.7v16.5M106.4,78.7v16.5M109.4,78.7v16.5M112.4,78.7v16.5M115.4,78.7v16.5M118.4,78.7v16.5"/>
              <g id="use285" data-name="use28">
                <path id="path2611" data-name="path26" class="st6" d="M103.4,55.8v16.5M106.4,55.8v16.5M109.4,55.8v16.5M112.4,55.8v16.5M115.4,55.8v16.5M118.4,55.8v16.5"/>
              </g>
            </g>
          </g>
        </g>
      </g>
      <g id="use36">
        <g id="g183" data-name="g18">
          <g id="g206" data-name="g20">
            <path id="path226" data-name="path22" class="st14" d="M123.9,54.2h19.8v19.8h-19.8v-19.8Z"/>
            <path id="path246" data-name="path24" class="st9" d="M123.9,77h19.8v19.8h-19.8v-19.8Z"/>
            <path id="path2612" data-name="path26" class="st6" d="M126.3,72.3v-16.5M129.3,72.3v-16.5M132.3,72.3v-16.5M135.3,72.3v-16.5M138.3,72.3v-16.5M141.2,72.3v-16.5"/>
            <g id="use286" data-name="use28">
              <path id="path2613" data-name="path26" class="st6" d="M126.3,95.2v-16.5M129.3,95.2v-16.5M132.3,95.2v-16.5M135.3,95.2v-16.5M138.3,95.2v-16.5M141.2,95.2v-16.5"/>
            </g>
          </g>
          <g id="use303" data-name="use30">
            <g id="g207" data-name="g20">
              <path id="path227" data-name="path22" class="st14" d="M146.7,96.9h19.8v-19.8h-19.8v19.8Z"/>
              <path id="path247" data-name="path24" class="st9" d="M146.7,74h19.8v-19.8h-19.8v19.8Z"/>
              <path id="path2614" data-name="path26" class="st6" d="M149.2,78.7v16.5M152.1,78.7v16.5M155.1,78.7v16.5M158.1,78.7v16.5M161.1,78.7v16.5M164.1,78.7v16.5"/>
              <g id="use287" data-name="use28">
                <path id="path2615" data-name="path26" class="st6" d="M149.2,55.8v16.5M152.1,55.8v16.5M155.1,55.8v16.5M158.1,55.8v16.5M161.1,55.8v16.5M164.1,55.8v16.5"/>
              </g>
            </g>
          </g>
        </g>
      </g>
    </g>
  </g>
  <g class="st5">
    <path id="path38" class="st11" d="M221.6,81.9c1.5-11.9-7.4-21.3-12.9-25.7-6.4,7.4-7.4,26.7,2.6,34.8-5.6,5-17.3,9.4-29.4,9.4H34c-1.2,12.6,0,73.1,0,73.1h217l-1-91.4c-9.4-5.4-21.5-3.7-28.4-.2"/>
  </g>
  <g class="st12">
    <path id="path40" class="st2" d="M34,116.5v57h217v-57"/>
  </g>
  <g class="st7">
    <path id="path42" class="st8" d="M111.2,168.4c-13.5-6.4-21-15.2-25.1-24.7l-41.1,1.8,21,28,45.2-5.1"/>
  </g>
  <g class="st0">
    <path id="path44" class="st10" d="M222.5,81.4h0c-20.9,26.9-50.8,50.4-82.9,62.8-28.7,11-53.6,11.1-70.9,2.2-1.9-1-3.7-2.2-5.5-3.3-12.6-8.8-19.8-23.4-19.2-42.7h-10.1v73.1h217v-96h-25l-3.5,3.9Z"/>
  </g>
  <path id="path46" class="st4" d="M45.6,144.5c14.2.8,29.3.9,42.5-3.2"/>
  <path id="path48" class="st8" d="M102.2,134.5c0,3-2.4,5.5-5.5,5.5s-5.5-2.4-5.5-5.5,2.4-5.5,5.5-5.5,5.5,2.4,5.5,5.5Z"/>
  <path id="path50" class="st1" d="M98.1,130.8c-.5.3-.8.8-.8,1.4,0,.9.7,1.6,1.6,1.6s1.1-.3,1.4-.8c.2.5.3,1,.3,1.5,0,2.2-1.8,3.9-3.9,3.9s-3.9-1.8-3.9-3.9,1.8-3.9,3.9-3.9,1,0,1.4.3Z"/>
  <path id="path52" class="st1" d="M0,117.7h254.3c-5.5-1.4-17.5-3.3-15.5-10.6-10.1,11.7-34.4,8.2-40.5,2.4-6.8,9.9-46.6,6.1-49.3-1.6-8.6,10-35.1,10-43.6,0-2.8,7.7-42.5,11.5-49.3,1.6-6.1,5.7-30.4,9.2-40.5-2.4,2,7.3-10,9.2-15.5,10.6"/>
</svg>