<?xml version="1.0" encoding="UTF-8"?>
<svg id="Layer_1" xmlns="http://www.w3.org/2000/svg" version="1.1" viewBox="0 0 114 114">
  <!-- Generator: Adobe Illustrator 29.1.0, SVG Export Plug-In . SVG Version: 2.1.0 Build 142)  -->
  <defs>
    <style>
      .st0 {
        fill: #f05133;
      }
    </style>
  </defs>
  <path class="st0" d="M111.8,51.9L62.1,2.2c-2.9-2.9-7.5-2.9-10.4,0l-10.3,10.3,13.1,13.1c3-1,6.5-.3,9,2.1,2.4,2.4,3.1,6,2.1,9l12.6,12.6c3.1-1.1,6.6-.4,9,2.1,3.4,3.4,3.4,8.9,0,12.3-3.4,3.4-8.9,3.4-12.3,0-2.6-2.6-3.2-6.3-1.9-9.5l-11.8-11.8v31c.8.4,1.6,1,2.3,1.7,3.4,3.4,3.4,8.9,0,12.3-3.4,3.4-8.9,3.4-12.3,0-3.4-3.4-3.4-8.9,0-12.3.8-.8,1.8-1.5,2.9-1.9v-31.3c-1-.4-2-1.1-2.9-1.9-2.6-2.6-3.2-6.4-1.9-9.5l-12.9-12.9L2.2,51.7c-2.9,2.9-2.9,7.5,0,10.4l49.7,49.7c2.9,2.9,7.5,2.9,10.4,0l49.5-49.5c2.9-2.9,2.9-7.5,0-10.4"/>
</svg>