<?xml version="1.0" encoding="UTF-8"?>
<svg id="svg1291" xmlns="http://www.w3.org/2000/svg" version="1.1" xmlns:cc="http://creativecommons.org/ns#" xmlns:dc="http://purl.org/dc/elements/1.1/" xmlns:inkscape="http://www.inkscape.org/namespaces/inkscape" xmlns:rdf="http://www.w3.org/1999/02/22-rdf-syntax-ns#" xmlns:sodipodi="http://sodipodi.sourceforge.net/DTD/sodipodi-0.dtd" xmlns:svg="http://www.w3.org/2000/svg" viewBox="0 0 250 250">
  <!-- Generator: Adobe Illustrator 29.1.0, SVG Export Plug-In . SVG Version: 2.1.0 Build 142)  -->
  <defs>
    <style>
      .st0 {
        fill: #0a66c2;
      }

      .st0, .st1 {
        fill-rule: evenodd;
      }

      .st1 {
        fill: #fff;
      }
    </style>
  </defs>
  <sodipodi:namedview id="base" bordercolor="#666666" borderopacity="1.0" fit-margin-bottom="0" fit-margin-left="0" fit-margin-right="0" fit-margin-top="0" inkscape:current-layer="layer1" inkscape:cx="996.28572" inkscape:cy="-674.20459" inkscape:document-units="px" inkscape:pageopacity="0.0" inkscape:pageshadow="2" inkscape:window-height="1017" inkscape:window-maximized="1" inkscape:window-width="1920" inkscape:window-x="1912" inkscape:window-y="-6" inkscape:zoom="0.35" pagecolor="#ffffff" showgrid="false" units="px"/>
  <g id="layer1" inkscape:groupmode="layer" inkscape:label="Layer 1">
    <g id="g1917">
      <g id="g1913">
        <g id="g1905">
          <path id="path1901" class="st1" d="M231.9,0H18.8C8.7,0,0,8.1,0,18v214c0,9.9,5.7,18,15.9,18h213c10.2,0,21.1-8.1,21.1-18V18c0-9.9-7.9-18-18.1-18" inkscape:connector-curvature="0"/>
          <path id="path1903" class="st0" d="M231.9,0H18.8C8.7,0,0,8.1,0,18v214c0,9.9,5.7,18,15.9,18h213c10.2,0,21.1-8.1,21.1-18V18c0-9.9-7.9-18-18.1-18ZM95.2,95.2h33.7v17.2h.4c5.1-9.3,20.3-18.6,39-18.6,36,0,46,19.1,46,54.5v66.1h-35.7v-59.6c0-15.8-6.3-29.7-21.1-29.7s-26.5,12.2-26.5,32.1v57.2h-35.7v-119ZM35.7,214.3h35.7v-119h-35.7v119ZM75.9,53.6c0,12.3-10,22.3-22.3,22.3-12.3,0-22.3-10-22.3-22.3,0-12.3,10-22.3,22.3-22.3,12.3,0,22.3,10,22.3,22.3Z" inkscape:connector-curvature="0"/>
        </g>
      </g>
    </g>
  </g>
</svg>