<?xml version="1.0" encoding="UTF-8"?>
<svg id="Layer_1" data-name="Layer 1" xmlns="http://www.w3.org/2000/svg" viewBox="0 0 128 128">
  <defs>
    <style>
      .cls-1 {
        fill: #36c5f0;
      }

      .cls-2 {
        fill: #e01e5a;
      }

      .cls-3 {
        fill: #ecb22e;
      }

      .cls-4 {
        fill: #2eb67d;
      }
    </style>
  </defs>
  <path class="cls-2" d="M27.71,81.36c0,7.3-5.9,13.2-13.2,13.2s-13.2-5.9-13.2-13.2,5.9-13.2,13.2-13.2h13.2v13.2ZM34.31,81.36c0-7.3,5.9-13.2,13.2-13.2s13.2,5.9,13.2,13.2v33c0,7.3-5.9,13.2-13.2,13.2s-13.2-5.9-13.2-13.2v-33Z"/>
  <path class="cls-1" d="M47.51,28.36c-7.3,0-13.2-5.9-13.2-13.2S40.21,1.96,47.51,1.96s13.2,5.9,13.2,13.2v13.2h-13.2ZM47.51,35.06c7.3,0,13.2,5.9,13.2,13.2s-5.9,13.2-13.2,13.2H14.41c-7.3,0-13.2-5.9-13.2-13.2s5.9-13.2,13.2-13.2h33.1Z"/>
  <path class="cls-4" d="M100.41,48.26c0-7.3,5.9-13.2,13.2-13.2s13.2,5.9,13.2,13.2-5.9,13.2-13.2,13.2h-13.2v-13.2ZM93.81,48.26c0,7.3-5.9,13.2-13.2,13.2s-13.2-5.9-13.2-13.2V15.16c0-7.3,5.9-13.2,13.2-13.2s13.2,5.9,13.2,13.2c0,0,0,33.1,0,33.1Z"/>
  <path class="cls-3" d="M80.61,101.16c7.3,0,13.2,5.9,13.2,13.2s-5.9,13.2-13.2,13.2-13.2-5.9-13.2-13.2v-13.2h13.2ZM80.61,94.56c-7.3,0-13.2-5.9-13.2-13.2s5.9-13.2,13.2-13.2h33.1c7.3,0,13.2,5.9,13.2,13.2s-5.9,13.2-13.2,13.2h-33.1Z"/>
</svg>