<?xml version="1.0" encoding="UTF-8"?>
<svg id="Layer_1" xmlns="http://www.w3.org/2000/svg" version="1.1" xmlns:xlink="http://www.w3.org/1999/xlink" viewBox="0 0 630 630">
  <!-- Generator: Adobe Illustrator 29.1.0, SVG Export Plug-In . SVG Version: 2.1.0 Build 142)  -->
  <defs>
    <style>
      .st0 {
        fill: none;
      }

      .st1 {
        clip-path: url(#clippath-1);
      }

      .st2 {
        fill: #f7df1e;
      }

      .st3 {
        clip-path: url(#clippath);
      }
    </style>
    <clipPath id="clippath">
      <rect class="st0" width="630" height="630" rx="16" ry="16"/>
    </clipPath>
    <clipPath id="clippath-1">
      <rect class="st0" width="630" height="630" rx="25" ry="25"/>
    </clipPath>
  </defs>
  <g class="st3">
    <g class="st1">
      <g>
        <path class="st2" d="M0,0h630v630H0V0Z"/>
        <path d="M165.6,526.5l48.2-29.2c9.3,16.5,17.8,30.4,38.1,30.4s31.7-7.6,31.7-37.2v-201.3h59.2v202.1c0,61.3-35.9,89.2-88.4,89.2s-74.9-24.5-88.8-54.1M375,520.1l48.2-27.9c12.7,20.7,29.2,35.9,58.4,35.9s40.2-12.3,40.2-29.2-16.1-27.5-43.1-39.3l-14.8-6.4c-42.7-18.2-71-41-71-89.2s33.8-78.2,86.7-78.2,64.7,13.1,84.2,47.4l-46.1,29.6c-10.1-18.2-21.1-25.4-38.1-25.4s-28.3,11-28.3,25.4,11,25,36.4,36l14.8,6.4c50.3,21.6,78.7,43.5,78.7,93s-41.9,82.5-98.1,82.5-90.5-26.2-107.8-60.5"/>
      </g>
    </g>
  </g>
</svg>