<?xml version="1.0" encoding="UTF-8"?>
<svg id="Layer_1" data-name="Layer 1" xmlns="http://www.w3.org/2000/svg" viewBox="0 0 160 160">
  <defs>
    <style>
      .cls-1 {
        fill: #fca326;
      }

      .cls-2 {
        fill: #fc6d26;
      }

      .cls-3 {
        fill: #e24329;
      }
    </style>
  </defs>
  <path class="cls-3" d="M156.29,64.37l-.21-.56-21.2-55.3c-.43-1.09-1.19-2.01-2.18-2.63-2.6-1.67-6.07-.91-7.74,1.7-.3.46-.52.97-.67,1.5l-14.31,43.81h-57.95l-14.31-43.81c-.85-2.98-3.95-4.71-6.93-3.86-.52.15-1.02.37-1.48.66-.99.62-1.75,1.54-2.18,2.63L5.94,63.82l-.22.55c-6.27,16.38-.94,34.93,13.06,45.49l.08.06.18.14,32.25,24.17,16,12.09,9.72,7.35c2.34,1.77,5.58,1.77,7.92,0l9.72-7.35,16-12.09,32.48-24.31.09-.07c14-10.56,19.33-29.1,13.07-45.48Z"/>
  <path class="cls-2" d="M156.29,64.37l-.21-.56c-10.33,2.12-20.06,6.5-28.5,12.82l-46.55,35.2,29.64,22.4,32.48-24.31.09-.07c13.99-10.56,19.31-29.11,13.05-45.48Z"/>
  <path class="cls-1" d="M51.29,134.23l16,12.09,9.72,7.35c2.34,1.77,5.58,1.77,7.92,0l9.72-7.35,16-12.09-29.64-22.4-29.72,22.4Z"/>
  <path class="cls-2" d="M34.43,76.63c-8.44-6.32-18.16-10.69-28.49-12.81l-.22.55c-6.27,16.38-.94,34.93,13.06,45.49l.08.06.18.14,32.25,24.17,29.66-22.4-46.52-35.2Z"/>
</svg>