<?xml version="1.0" encoding="UTF-8"?>
<svg id="Layer_1" data-name="Layer 1" xmlns="http://www.w3.org/2000/svg" viewBox="0 0 105.8 63.48">
  <defs>
    <style>
      .cls-1 {
        fill: #38bdf8;
      }
    </style>
  </defs>
  <path class="cls-1" d="M52.9,0c-14.11,0-22.92,7.05-26.45,21.16,5.29-7.05,11.46-9.7,18.51-7.93,4.02,1.01,6.9,3.93,10.08,7.16,5.19,5.26,11.19,11.36,24.3,11.36,14.11,0,22.92-7.05,26.45-21.16-5.29,7.05-11.46,9.7-18.51,7.93-4.02-1-6.9-3.93-10.08-7.16-5.19-5.26-11.19-11.36-24.3-11.36ZM26.45,31.74C12.34,31.74,3.53,38.79,0,52.9c5.29-7.05,11.46-9.7,18.51-7.94,4.02,1.01,6.9,3.93,10.08,7.16,5.19,5.26,11.19,11.36,24.3,11.36,14.11,0,22.92-7.05,26.45-21.16-5.29,7.05-11.46,9.7-18.51,7.94-4.02-1.01-6.9-3.93-10.08-7.16-5.19-5.26-11.19-11.36-24.3-11.36Z"/>
</svg>