<?xml version="1.0" encoding="UTF-8"?>
<svg id="Layer_1" xmlns="http://www.w3.org/2000/svg" version="1.1" viewBox="0 0 1286.3 1286.3">
  <!-- Generator: Adobe Illustrator 29.1.0, SVG Export Plug-In . SVG Version: 2.1.0 Build 142)  -->
  <defs>
    <style>
      .st0 {
        fill: #e11f21;
      }

      .st1 {
        fill: #0b6fb6;
      }
    </style>
  </defs>
  <path class="st1" d="M475.7,991.9s-48.8,28.3,34.7,37.9c101.1,11.5,152.8,9.9,264.2-11.2,0,0,29.3,18.4,70.2,34.3-249.7,107-565.2-6.2-369-61M445.2,852.2s-54.7,40.5,28.8,49.1c108,11.1,193.3,12.1,340.8-16.4,0,0,20.4,20.7,52.5,32-301.9,88.3-638.3,7-422.2-64.8"/>
  <path class="st0" d="M702.5,615.3c61.5,70.8-16.2,134.6-16.2,134.6,0,0,156.2-80.7,84.5-181.7-67-94.2-118.4-141,159.8-302.4,0,0-436.7,109.1-228.1,349.4"/>
  <path class="st1" d="M1032.8,1095.2s36.1,29.7-39.7,52.7c-144.1,43.7-600,56.9-726.6,1.7-45.5-19.8,39.8-47.3,66.7-53,28-6.1,44-4.9,44-4.9-50.6-35.7-327.2,70-140.5,100.3,509.2,82.6,928.2-37.2,796.1-96.8M499.2,707.5s-231.9,55.1-82.1,75.1c63.2,8.5,189.3,6.5,306.7-3.3,96-8.1,192.3-25.3,192.3-25.3,0,0-33.8,14.5-58.3,31.2-235.4,61.9-690.3,33.1-559.3-30.2,110.7-53.5,200.8-47.5,200.8-47.5M915.1,940c239.3-124.4,128.7-243.9,51.4-227.8-18.9,3.9-27.4,7.4-27.4,7.4,0,0,7-11,20.5-15.8,152.8-53.7,270.3,158.4-49.3,242.5,0,0,3.7-3.3,4.8-6.3"/>
  <path class="st0" d="M770.8,5.3s132.6,132.6-125.7,336.5c-207.1,163.6-47.2,256.8,0,363.4-120.9-109.1-209.6-205.1-150.1-294.5,87.4-131.2,329.4-194.8,275.9-405.4"/>
  <path class="st1" d="M522.7,1277c229.7,14.7,582.5-8.2,590.9-116.9,0,0-16.1,41.2-189.9,73.9-196.1,36.9-437.9,32.6-581.4,8.9,0,0,29.4,24.3,180.4,34"/>
</svg>