<?xml version="1.0" encoding="UTF-8"?>
<svg id="Layer_1" xmlns="http://www.w3.org/2000/svg" version="1.1" xmlns:xlink="http://www.w3.org/1999/xlink" viewBox="0 0 256 256">
  <!-- Generator: Adobe Illustrator 29.1.0, SVG Export Plug-In . SVG Version: 2.1.0 Build 142)  -->
  <defs>
    <style>
      .st0 {
        fill: #512bd4;
      }

      .st1 {
        fill: #fff;
      }

      .st2 {
        fill: none;
      }

      .st3 {
        clip-path: url(#clippath);
      }
    </style>
    <clipPath id="clippath">
      <rect class="st2" width="256" height="256" rx="16" ry="16"/>
    </clipPath>
  </defs>
  <g class="st3">
    <path class="st0" d="M256,0H0v256h256V0Z"/>
    <path class="st1" d="M106.2,162.5h11.8v-66.5h-10.4v42.9c0,4.2.2,7.2.5,9h-.2c-.4-.7-1.2-2.1-2.4-4.1l-30-47.7h-12.5v66.5h10.4v-43.6c0-4.7-.1-7.7-.4-9.1h.3c.5,1.3,1.2,2.6,1.9,3.9l31,48.9h0ZM41,161.7c1.3,1.2,2.8,1.8,4.6,1.8s3.4-.6,4.7-1.8c1.3-1.2,1.9-2.7,1.9-4.4s-.6-3.2-1.9-4.5c-1.3-1.2-2.8-1.9-4.7-1.9s-3.3.6-4.6,1.9c-1.3,1.2-1.9,2.7-1.9,4.5s.6,3.2,1.9,4.4h0ZM168.7,162.5h-36.4v-66.5h35v9.4h-24.2v18.8h22.3v9.3h-22.3v19.7h25.7v9.3h0ZM201.8,105.4h18.6v-9.4h-48v9.4h18.6v57.2h10.8v-57.2Z"/>
  </g>
</svg>