<?xml version="1.0" encoding="UTF-8"?>
<svg id="Layer_1" xmlns="http://www.w3.org/2000/svg" version="1.1" viewBox="0 0 110 110">
  <!-- Generator: Adobe Illustrator 29.1.0, SVG Export Plug-In . SVG Version: 2.1.0 Build 142)  -->
  <defs>
    <style>
      .st0 {
        fill: #6db33f;
      }
    </style>
  </defs>
  <g id="Layer_2">
    <g id="logos">
      <path class="st0" d="M101.3,18.6c-1.3,3.2-3.1,6.3-5.2,9.1-18.6-19.2-49.3-19.8-68.5-1.2-19.2,18.6-19.8,49.3-1.2,68.5.6.7,1.3,1.3,2,1.9l1.8,1.6c20.4,17.2,51,14.6,68.2-5.8,6.6-7.8,10.6-17.6,11.3-27.8,1.4-12.2-2.3-27.8-8.4-46.4ZM35.4,97.4c-1.4,1.8-4,2-5.8.6-1.8-1.4-2-4-.6-5.8,1.4-1.8,4-2,5.8-.6,1.7,1.5,2,4,.6,5.8ZM101,82.9c-11.9,15.9-37.5,10.5-53.8,11.3,0,0-2.9.2-5.8.6,0,0,1.1-.5,2.5-1,11.5-4,16.9-4.8,23.9-8.4,13.1-6.7,26.2-21.4,28.8-36.6-5,14.6-20.2,27.2-34,32.3-9.5,3.5-26.6,6.9-26.6,6.9l-.7-.4c-11.6-5.7-12-30.9,9.2-39,9.3-3.6,18.1-1.6,28.2-4,10.7-2.5,23.1-10.5,28.1-21,5.6,16.9,12.4,43.1.2,59.3Z"/>
    </g>
  </g>
</svg>