<?xml version="1.0" encoding="UTF-8"?>
<svg id="Layer_1" data-name="Layer 1" xmlns="http://www.w3.org/2000/svg" viewBox="0 0 335.03 284.62">
  <defs>
    <style>
      .cls-1 {
        letter-spacing: .03em;
      }

      .cls-2 {
        stroke-dasharray: 2.96 2.96;
      }

      .cls-2, .cls-3 {
        stroke: #58595b;
        stroke-width: .5px;
      }

      .cls-2, .cls-3, .cls-4 {
        fill: none;
        stroke-miterlimit: 10;
      }

      .cls-5 {
        font-size: 18px;
      }

      .cls-5, .cls-6 {
        fill: #231f20;
        font-family: MyriadPro-Regular, 'Myriad Pro';
      }

      .cls-7 {
        letter-spacing: 0em;
      }

      .cls-8 {
        letter-spacing: 0em;
      }

      .cls-6 {
        font-size: 48px;
      }

      .cls-9 {
        fill: #be1e2d;
      }

      .cls-10 {
        fill: #a7a9ac;
      }

      .cls-11 {
        letter-spacing: -.03em;
      }

      .cls-4 {
        stroke: #231f20;
      }

      .cls-12 {
        letter-spacing: -.01em;
      }

      .cls-13 {
        letter-spacing: -.01em;
      }
    </style>
  </defs>
  <polyline class="cls-4" points="308.48 253.75 35.02 253.75 35.02 17.47"/>
  <path class="cls-9" d="M37.65,253.39c7.13-23.88,16.25-47.17,27.67-69.33s24.81-42.82,40.69-61.75c15.02-17.91,32.1-34.17,51-47.95,19.29-14.07,40.4-25.57,62.83-33.76,25.78-9.41,52.92-15.47,80.03-19.53,3.3-.49,6.61-.95,9.93-1.37,1.34-.17,2.5-1.03,2.5-2.5,0-1.22-1.15-2.67-2.5-2.5-27.74,3.53-55.42,9.16-82.02,17.87-23.57,7.72-45.92,18.61-66.41,32.61s-37.68,29.49-53.52,47.36-30.72,39.26-42.65,61.09c-12.12,22.18-21.94,45.61-29.66,69.66-.93,2.91-1.84,5.83-2.71,8.77-.92,3.09,3.9,4.41,4.82,1.33h0Z"/>
  <path class="cls-10" d="M91.76,239.69c13.17-12.02,21.32-27.88,28.75-43.79,3.47-7.42,6.92-14.88,11.13-21.92,1.16-1.93,2.37-3.84,3.64-5.7.71-1.04,4.68-6.88,2-2.9,2.81-4.16,6.6-7.92,9.98-11.62,6.02-6.58,12.35-12.88,18.96-18.86,3.1-2.8,6.26-5.54,9.48-8.2,1.72-1.42,3.46-2.81,5.2-4.2.89-.71,3.02-2.81-.59.45,1.02-.92,2.24-1.69,3.35-2.5,14.35-10.58,29.7-19.82,45.78-27.54,2.26-1.08,4.54-2.14,6.83-3.16,1.02-.45,2.04-.9,3.06-1.35,3.92-1.74-2.6,1.01.02,0,5.19-2,10.35-4.04,15.6-5.86,11.2-3.89,22.57-7.26,33.93-10.62,11.27-3.34,19.51-15.96,15.71-27.68s-15.59-19.29-27.68-15.71c-38.84,11.5-76.4,25.36-109.85,48.69-32,22.31-63.4,50.77-80.78,86.24-4.06,8.28-7.69,16.77-12.02,24.92-2.13,4-4.41,7.92-6.99,11.64-.16.23-1.3,2.22-1.75,2.43,1.86-2.37,2.26-2.9,1.2-1.61-.47.58-.96,1.15-1.46,1.71-1.67,1.89-3.46,3.65-5.32,5.35-8.71,7.96-8.68,23.85,0,31.82,9.32,8.55,22.52,8.49,31.82,0h0Z"/>
  <path class="cls-10" d="M124.87,239.02c19.52-23.86,39.32-47.63,61.77-68.83,5.28-4.99,10.7-9.83,16.24-14.53,2.88-2.44,5.8-4.84,8.75-7.2,1.34-1.08,2.67-2.29,4.11-3.24-.16.1-3.14,2.38-1.1.86.93-.69,1.85-1.4,2.78-2.1,11.63-8.7,23.74-16.78,36.24-24.18,7-4.14,14.13-8.08,21.37-11.79,1.81-.93,3.62-1.85,5.45-2.74.77-.38,1.57-.71,2.33-1.12,2.75-1.47-3.56,1.15-.57.22.48-.15,5.76-1.68,5.77-1.71-.02.41-4.45.06-1.82.33,3.16.32-5.59-1.41-.2-.09,11.41,2.8,24.93-3.64,27.68-15.71s-3.49-24.68-15.71-27.68c-19.99-4.9-37.88,5.26-54.87,14.54-13.77,7.52-27.11,15.84-39.91,24.92-26.84,19.02-51.32,40.8-73.43,65.13-12.7,13.96-24.73,28.51-36.67,43.11-7.44,9.09-9.56,23.04,0,31.82,8.25,7.57,23.86,9.73,31.82,0h0Z"/>
  <path class="cls-10" d="M154.48,240.06c25.43-20.53,50.71-41.26,76.33-61.55,1.4-1.11,2.81-2.22,4.22-3.33,1.53-1.2,4.15-3.26,1.11-.88,3.05-2.39,6.17-4.71,9.28-7.02,5.98-4.43,12.05-8.75,18.25-12.88,12.86-8.58,26.26-16.28,40.35-22.66,10.76-4.87,14.18-21.3,8.07-30.78-7.16-11.11-19.28-13.28-30.78-8.07-29.53,13.37-55.59,32.71-80.91,52.7-26.12,20.62-51.84,41.75-77.73,62.66-9.2,7.43-8.31,24.19,0,31.82,9.77,8.97,22.01,7.92,31.82,0h0Z"/>
  <path class="cls-10" d="M184.53,244.29c21.95-12.49,43.4-25.87,63.87-40.67,10.86-7.85,21.34-16.18,31.83-24.51,1.36-1.08,2.72-2.24,4.13-3.25-1.45,1.04-2.41,1.82-.38.33,2.58-1.9,5.16-3.79,7.81-5.58,5.07-3.41,10.33-6.44,15.87-9.02,10.7-4.99,14.24-21.22,8.07-30.78-7.1-11.02-19.34-13.41-30.78-8.07-12.1,5.64-22.63,13.67-33.1,21.85-4.61,3.6-9.15,7.31-13.75,10.92-1.66,1.3-2.93,2.45-.56.44-1.4,1.18-2.95,2.25-4.42,3.35-2.46,1.85-4.94,3.67-7.44,5.47-20.47,14.8-41.93,28.18-63.87,40.67-10.23,5.83-14.6,20.65-8.07,30.78s19.83,14.3,30.78,8.07h0Z"/>
  <path class="cls-10" d="M220.38,245.06c15.29-11.01,30.58-22.01,45.87-33.02,6.83-4.91,13.63-9.87,20.71-14.42,3.49-2.24,7.03-4.38,10.68-6.36,1.82-.99,3.65-1.93,5.52-2.83,1.06-.51,2.14-1.01,3.22-1.48-2.66,1.1-2.81,1.18-.45.25,10.93-4.26,19.73-15.28,15.71-27.68-3.44-10.62-15.94-20.3-27.68-15.71-17.91,6.99-33.28,17.05-48.81,28.22s-31.66,22.78-47.48,34.18c-9.53,6.86-15.09,19.9-8.07,30.78,6.09,9.45,20.57,15.43,30.78,8.07h0Z"/>
  <path class="cls-10" d="M260.56,239.63c2.06-1.75.5-1.15-.32.16.49-.78,2.19-1.54,2.97-2.05,2.26-1.49,4.6-2.87,6.95-4.22,4.63-2.66,9.3-5.23,13.96-7.84,9.47-5.3,18.94-10.61,28.41-15.91,10.28-5.76,14.57-20.7,8.07-30.78-6.7-10.4-19.79-14.23-30.78-8.07-10.03,5.62-20.05,11.23-30.08,16.85-10.85,6.08-21.44,11.96-30.99,20.05-9.02,7.63-8.45,24.06,0,31.82,9.59,8.81,22.2,8.14,31.82,0h0Z"/>
  <path class="cls-10" d="M274.88,250.96c11.77,0,23.04-10.35,22.5-22.5s-9.89-22.5-22.5-22.5c-11.77,0-23.04,10.35-22.5,22.5s9.89,22.5,22.5,22.5h0Z"/>
  <path class="cls-10" d="M293.84,243.26c11.77,0,23.04-10.35,22.5-22.5-.55-12.19-9.89-22.5-22.5-22.5-11.77,0-23.04,10.35-22.5,22.5s9.89,22.5,22.5,22.5h0Z"/>
  <text class="cls-6" transform="translate(162.28 161.5)"><tspan class="cls-11" x="0" y="0">A</tspan><tspan class="cls-8" x="28.03" y="0">UC</tspan></text>
  <text class="cls-5" transform="translate(114.43 45.52)"><tspan class="cls-7" x="0" y="0">R</tspan><tspan x="9.74" y="0">OC </tspan><tspan class="cls-12" x="36.4" y="0">C</tspan><tspan x="46.62" y="0">u</tspan><tspan class="cls-1" x="56.54" y="0">r</tspan><tspan class="cls-13" x="62.87" y="0">v</tspan><tspan x="71.35" y="0">e</tspan></text>
  <text class="cls-5" transform="translate(27.26 43.52) rotate(-90)"><tspan x="0" y="0">TPR</tspan></text>
  <text class="cls-5" transform="translate(282.64 275.07)"><tspan x="0" y="0">FPR</tspan></text>
  <g>
    <line class="cls-3" x1="35.02" y1="253.75" x2="36.14" y2="252.78"/>
    <line class="cls-2" x1="38.38" y1="250.85" x2="301.79" y2="23.24"/>
    <line class="cls-3" x1="302.91" y1="22.27" x2="304.03" y2="21.31"/>
  </g>
</svg>